<?xml version="1.0" encoding="utf-8"?>
<!-- Generator: Adobe Illustrator 24.0.3, SVG Export Plug-In . SVG Version: 6.00 Build 0)  -->
<svg version="1.1" id="Capa_1" xmlns="http://www.w3.org/2000/svg" xmlns:xlink="http://www.w3.org/1999/xlink" x="0px" y="0px"
	 viewBox="0 0 521.5 556.4" style="enable-background:new 0 0 521.5 556.4;" xml:space="preserve">
<style type="text/css">
	.st0{fill:none;stroke:#000000;stroke-width:30;stroke-miterlimit:10;}
	.st1{fill:none;stroke:#000000;stroke-width:30;stroke-linecap:round;stroke-linejoin:round;stroke-miterlimit:10;}
	.st2{fill:#FFFFFF;stroke:#000000;stroke-width:30;stroke-miterlimit:10;}
</style>
<path class="st0" d="M-1124.2,1735.2c-6.8,0-13.4-2.4-18.5-6.9c-19.3-16.8-38-32.5-54.4-46.5l-0.1-0.1
	c-48.2-40.8-89.9-76-118.8-110.7c-32.4-38.8-47.5-75.6-47.5-115.7c0-39,13.5-75,38-101.4c24.8-26.7,58.8-41.4,95.7-41.4
	c27.6,0,52.9,8.7,75.2,25.8c11.2,8.6,21.4,19.2,30.4,31.5c9-12.3,19.2-22.9,30.4-31.5c22.3-17.1,47.6-25.8,75.2-25.8
	c37,0,71,14.7,95.7,41.4c24.5,26.4,38,62.4,38,101.4c0,40.2-15.1,76.9-47.5,115.7c-29,34.7-70.6,69.9-118.8,110.7
	c-16.5,13.9-35.1,29.7-54.5,46.5C-1110.8,1732.7-1117.4,1735.2-1124.2,1735.2z"/>
<circle class="st0" cx="-2291" cy="278.2" r="237.5"/>
<g>
	<polygon class="st1" points="25.3,512.5 496.2,512.5 456.1,140.4 66.2,140.4 	"/>
	<path class="st1" d="M163.8,169.9c0,0-56.2-126.3,99.1-126s91.9,126,91.9,126"/>
</g>
<g>
	<line class="st1" x1="538.5" y1="1661.2" x2="157.8" y2="1408.4"/>
	<circle class="st2" cx="249.1" cy="1470.9" r="165.4"/>
</g>
<polyline class="st1" points="2341,1184.8 2552.2,1396 2351,1597.3 "/>
<polyline class="st1" points="2532.2,484.4 2321,273.2 2522.3,72 "/>
<polyline class="st1" points="3357.4,1457.5 3568.7,1246.3 3769.9,1447.5 "/>
<polyline class="st1" points="3715.8,172.6 3504.6,383.8 3303.4,182.6 "/>
<g>
	<circle class="st0" cx="-1124.2" cy="278.2" r="237.5"/>
	<g>
		<path class="st0" d="M-972.3,461.6c0,0,9.3-153.5-153-153.5S-1276,461.4-1276,461.4"/>
		<circle class="st0" cx="-1124.2" cy="219.8" r="85.5"/>
	</g>
</g>
</svg>
